:FULLY-SPECIFIED
:FORCE-ALL-JOINTS-BE-3DOF
:DEGREES
68
root 5.92412 16.7711 -28.0847 11.404 2.86567 -3.87564
lfemur -36.1944 15.5837 -17.953
ltibia 52.6961 0 0
lfoot -21.5163 -9.99688 0
ltoes 30.7935 0 0
rfemur -17.4045 0.0434406 21.9175
rtibia 30.2031 0 0
rfoot -26.2 -18.4822 0
rtoes -10.1675 0 0
lowerback -3.87536 2.52174 3.18997
upperback -1.52438 3.24854 -0.170509
thorax 0.789611 1.61895 -1.80958
lowerneck -9.99363 -2.42714 2.30227
upperneck -5.62823 -3.39926 1.97092
head -0.107633 -1.7191 0.133904
lclavicle 3.41841e-15 -5.25359e-15 0
lhumerus -40.5533 -11.5566 93.747
lradius 43.9587 0 0
lwrist 7.95422 0 0
lhand -13.4675 1.86967 0
lfingers 7.12502 0 0
lthumb 12.642 31.4582 0
rclavicle 3.41841e-15 -5.25359e-15 0
rhumerus -38.9486 2.27032 -91.8619
rradius 42.074 0 0
rwrist 8.5333 0 0
rhand -25.1715 -21.6643 0
rfingers 7.12502 0 0
rthumb 1.34591 -51.6398 0
69
root 5.93472 16.7716 -28.0674 11.5233 2.91863 -3.99504
lfemur -36.908 15.8836 -17.8016
ltibia 53.0429 0 0
lfoot -21.3488 -9.35168 0
ltoes 29.9424 0 0
rfemur -17.3977 0.178501 22.0116
rtibia 30.085 0 0
rfoot -25.9442 -18.6753 0
rtoes -10.7956 0 0
lowerback -3.888 2.57991 3.19196
upperback -1.56241 3.32588 -0.130166
thorax 0.759709 1.65682 -1.76584
lowerneck -10.0214 -2.45776 2.36824
upperneck -5.68791 -3.4462 1.92112
head -0.123875 -1.74461 0.107169
lclavicle -1.39856e-15 -8.20696e-15 0
lhumerus -40.5982 -11.1485 93.5758
lradius 43.9879 0 0
lwrist 8.04359 0 0
lhand -14.0129 1.74267 0
lfingers 7.12502 0 0
lthumb 12.1162 31.3645 0
rclavicle -1.39856e-15 -8.20696e-15 0
rhumerus -38.7502 2.59397 -91.8083
rradius 42.0341 0 0
rwrist 8.84999 0 0
rhand -25.2132 -21.5645 0
rfingers 7.12502 0 0
rthumb 1.30562 -51.5403 0
70
root 5.94532 16.772 -28.0502 11.6427 2.9716 -4.11444
lfemur -37.6217 16.1834 -17.6501
ltibia 53.3897 0 0
lfoot -21.1814 -8.70647 0
ltoes 29.0912 0 0
rfemur -17.3909 0.313561 22.1057
rtibia 29.9668 0 0
rfoot -25.6884 -18.8684 0
rtoes -11.4238 0 0
lowerback -3.90065 2.63808 3.19396
upperback -1.60043 3.40321 -0.0898229
thorax 0.729808 1.69469 -1.72209
lowerneck -10.0492 -2.48839 2.4342
upperneck -5.74759 -3.49314 1.87133
head -0.140118 -1.77013 0.0804334
lclavicle -6.21553e-15 -1.11603e-14 0
lhumerus -40.6431 -10.7404 93.4046
lradius 44.0171 0 0
lwrist 8.13296 0 0
lhand -14.5583 1.61566 0
lfingers 7.12502 0 0
lthumb 11.5905 31.2707 0
rclavicle -6.21553e-15 -1.11603e-14 0
rhumerus -38.5519 2.91762 -91.7547
rradius 41.9943 0 0
rwrist 9.16668 0 0
rhand -25.255 -21.4648 0
rfingers 7.12502 0 0
rthumb 1.26533 -51.4408 0
71
root 5.95592 16.7725 -28.0329 11.762 3.02456 -4.23384
lfemur -38.3353 16.4833 -17.4987
ltibia 53.7365 0 0
lfoot -21.0139 -8.06127 0
ltoes 28.2401 0 0
rfemur -17.3841 0.448621 22.1998
rtibia 29.8487 0 0
rfoot -25.4326 -19.0615 0
rtoes -12.0519 0 0
lowerback -3.91329 2.69625 3.19595
upperback -1.63846 3.48055 -0.04948
thorax 0.699906 1.73256 -1.67835
lowerneck -10.077 -2.51901 2.50017
upperneck -5.80727 -3.54008 1.82153
head -0.15636 -1.79564 0.0536981
lclavicle -1.10325e-14 -1.41137e-14 0
lhumerus -40.688 -10.3323 93.2334
lradius 44.0463 0 0
lwrist 8.22233 0 0
lhand -15.1037 1.48866 0
lfingers 7.12502 0 0
lthumb 11.0647 31.177 0
rclavicle -1.10325e-14 -1.41137e-14 0
rhumerus -38.3535 3.24127 -91.7011
rradius 41.9544 0 0
rwrist 9.48337 0 0
rhand -25.2967 -21.365 0
rfingers 7.12502 0 0
rthumb 1.22504 -51.3413 0
72
root 5.97577 16.7703 -28.0006 11.9582 3.0975 -4.34516
lfemur -38.7577 16.2706 -17.1883
ltibia 53.2424 0 0
lfoot -20.8421 -6.66877 0
ltoes 27.204 0 0
rfemur -17.3847 0.528792 22.2649
rtibia 29.6952 0 0
rfoot -25.5151 -19.2266 0
rtoes -11.921 0 0
lowerback -4.08472 2.77487 3.13756
upperback -1.72811 3.58317 -0.0256237
thorax 0.702706 1.78339 -1.60916
lowerneck -10.1269 -2.58596 2.58642
upperneck -5.78045 -3.63998 1.78993
head -0.142945 -1.84643 0.0263288
lclavicle -6.10904e-15 -1.22678e-14 0
lhumerus -40.8377 -10.1377 93.0738
lradius 44.0748 0 0
lwrist 8.30825 0 0
lhand -15.0674 1.47631 0
lfingers 7.12502 0 0
lthumb 11.0998 31.1627 0
rclavicle -6.10904e-15 -1.22678e-14 0
rhumerus -38.1965 3.28896 -91.5766
rradius 42.0329 0 0
rwrist 9.35461 0 0
rhand -25.2533 -21.4328 0
rfingers 7.12502 0 0
rthumb 1.26698 -51.4088 0
73
root 5.99561 16.7681 -27.9683 12.1543 3.17044 -4.45648
lfemur -39.1801 16.0579 -16.8779
ltibia 52.7483 0 0
lfoot -20.6702 -5.27627 0
ltoes 26.1679 0 0
rfemur -17.3852 0.608964 22.3301
rtibia 29.5416 0 0
rfoot -25.5977 -19.3917 0
rtoes -11.79 0 0
lowerback -4.25616 2.85348 3.07918
upperback -1.81776 3.68579 -0.00176743
thorax 0.705506 1.83422 -1.53998
lowerneck -10.1767 -2.65291 2.67266
upperneck -5.75362 -3.73988 1.75833
head -0.12953 -1.89721 -0.0010405
lclavicle -1.18559e-15 -1.0422e-14 0
lhumerus -40.9875 -9.94315 92.9141
lradius 44.1034 0 0
lwrist 8.39418 0 0
lhand -15.031 1.46395 0
lfingers 7.12502 0 0
lthumb 11.1348 31.1485 0
rclavicle -1.18559e-15 -1.0422e-14 0
rhumerus -38.0396 3.33664 -91.4521
rradius 42.1114 0 0
rwrist 9.22585 0 0
rhand -25.2098 -21.5007 0
rfingers 7.12502 0 0
rthumb 1.30891 -51.4764 0
74
root 6.01546 16.7659 -27.936 12.3505 3.24338 -4.5678
lfemur -39.6025 15.8452 -16.5675
ltibia 52.2542 0 0
lfoot -20.4984 -3.88377 0
ltoes 25.1318 0 0
rfemur -17.3858 0.689135 22.3952
rtibia 29.3881 0 0
rfoot -25.6802 -19.5568 0
rtoes -11.6591 0 0
lowerback -4.42759 2.9321 3.02079
upperback -1.90741 3.78841 0.0220889
thorax 0.708306 1.88505 -1.47079
lowerneck -10.2266 -2.71986 2.75891
upperneck -5.7268 -3.83978 1.72673
head -0.116115 -1.948 -0.0284098
lclavicle 3.73787e-15 -8.57613e-15 0
lhumerus -41.1372 -9.74857 92.7545
lradius 44.1319 0 0
lwrist 8.4801 0 0
lhand -14.9947 1.4516 0
lfingers 7.12502 0 0
lthumb 11.1699 31.1342 0
rclavicle 3.73787e-15 -8.57613e-15 0
rhumerus -37.8826 3.38433 -91.3276
rradius 42.1899 0 0
rwrist 9.09709 0 0
rhand -25.1664 -21.5685 0
rfingers 7.12502 0 0
rthumb 1.35085 -51.5439 0
75
root 6.03531 16.7637 -27.9036 12.5466 3.31631 -4.67913
lfemur -40.0249 15.6325 -16.2572
ltibia 51.7601 0 0
lfoot -20.3266 -2.49126 0
ltoes 24.0958 0 0
rfemur -17.3864 0.769306 22.4603
rtibia 29.2345 0 0
rfoot -25.7628 -19.722 0
rtoes -11.5282 0 0
lowerback -4.59903 3.01072 2.9624
upperback -1.99705 3.89103 0.0459451
thorax 0.711107 1.93589 -1.4016
lowerneck -10.2765 -2.7868 2.84515
upperneck -5.69997 -3.93968 1.69514
head -0.1027 -1.99878 -0.0557791
lclavicle 8.66133e-15 -6.73028e-15 0
lhumerus -41.2869 -9.554 92.5949
lradius 44.1604 0 0
lwrist 8.56603 0 0
lhand -14.9583 1.43925 0
lfingers 7.12502 0 0
lthumb 11.2049 31.12 0
rclavicle 8.66133e-15 -6.73028e-15 0
rhumerus -37.7256 3.43202 -91.2032
rradius 42.2685 0 0
rwrist 8.96832 0 0
rhand -25.123 -21.6363 0
rfingers 7.12502 0 0
rthumb 1.39279 -51.6115 0
76
root 6.05516 16.7615 -27.8713 12.7428 3.38925 -4.79045
lfemur -40.4473 15.4198 -15.9468
ltibia 51.266 0 0
lfoot -20.1548 -1.09876 0
ltoes 23.0597 0 0
rfemur -17.387 0.849477 22.5254
rtibia 29.081 0 0
rfoot -25.8453 -19.8871 0
rtoes -11.3973 0 0
lowerback -4.77046 3.08934 2.90401
upperback -2.0867 3.99365 0.0698014
thorax 0.713907 1.98672 -1.33241
lowerneck -10.3264 -2.85375 2.9314
upperneck -5.67315 -4.03958 1.66354
head -0.0892848 -2.04957 -0.0831484
lclavicle 1.35848e-14 -4.88442e-15 0
lhumerus -41.4366 -9.35942 92.4353
lradius 44.1889 0 0
lwrist 8.65195 0 0
lhand -14.922 1.4269 0
lfingers 7.12502 0 0
lthumb 11.24 31.1057 0
rclavicle 1.35848e-14 -4.88442e-15 0
rhumerus -37.5686 3.47971 -91.0787
rradius 42.347 0 0
rwrist 8.83956 0 0
rhand -25.0796 -21.7041 0
rfingers 7.12502 0 0
rthumb 1.43473 -51.679 0
